# xmcd
#
# Track frame offsets:
#	150
#	17092
#	31927
#	45693
#	63621
#	79799
#	96274
#	107961
#	122833
#	138895
#	158751
#	174983
#	191741
#	206766
#	218721
#	234249
#
# Disc length: 3311 seconds
#
# Revision: 1
# Processed by: cddbd v1.5.2PL0 Copyright (c) Steve Scherf et al.
# Submitted via: audiograbber 1.83.01
#
DISCID=da0ced10
DTITLE=Various Artist - Ultimate Heartland Country Collection Disc1
DYEAR=1900
DGENRE=
TTITLE0=Keith Urban - I Never Work On Sundays
TTITLE1=Adam Brand - Beating the Bush Around
TTITLE2=The Sunny Cowgirls - Rousy's Life
TTITLE3=Harmony James - Somebody Stole My Horse
TTITLE4=Colin Buchannan - Gallahs In The Gidgee
TTITLE5=Jedd Hughs - High Lonesome
TTITLE6=Kisty Lee Ackers - Little Things
TTITLE7=Victoria Baillie - Make Me
TTITLE8=Amber Lawrence - Soldier
TTITLE9=Darren Colston - The Boundary Rider
TTITLE10=Jake Nickolai - 3 Days Driving
TTITLE11=Darren Coggan - Back In My Hometown
TTITLE12=Ted Egan - The Drovers Boy
TTITLE13=Josh Arnold - Headin' For The Country
TTITLE14=Natalie Howard - You Never Knew Me
TTITLE15=The Pigs - Buster The Bomb
EXTD=
EXTT0=
EXTT1=
EXTT2=
EXTT3=
EXTT4=
EXTT5=
EXTT6=
EXTT7=
EXTT8=
EXTT9=
EXTT10=
EXTT11=
EXTT12=
EXTT13=
EXTT14=
EXTT15=
PLAYORDER=
